<svg viewBox="0 0 160 160" xmlns="http://www.w3.org/2000/svg">
 <g>
  <title>background</title>
  <rect fill="none" id="canvas_background" height="162" width="162" y="-1" x="-1"/>
 </g>
 <g>
  <title>Layer 1</title>
  <g id="svg_10">
   <g id="#c2f2f9ff">
    <path id="svg_1" d="m76.53,16.79c4.26,-0.56 9.1,-2.19 12.99,0.51c4.77,2.61 7.03,9.03 4.66,13.99c-2.13,4.03 -6.06,6.63 -9.81,9.02c-6.99,4.02 -14.21,8.08 -22.31,9.31c-4.62,0.98 -9.36,0.54 -14.04,0.62c-8.2,-0.28 -15.74,4.81 -23.99,3.56c-2.5,-0.27 -3.23,-3.07 -2.21,-5.06c2.18,-4.83 6.57,-8.11 10.59,-11.33c9.69,-7.23 19.95,-14.17 31.67,-17.6c4.1,-1.18 8.24,-2.28 12.45,-3.02z" fill="#c2f2f9"/>
   </g>
   <g id="#34a2c3ff">
    <path id="svg_2" d="m112.53,31.72c9.3,-1.52 19.34,0.95 26.5,7.17c9.04,7.62 13.54,20.45 10.62,32c-1.15,5.37 -4.19,10.01 -7.16,14.53c-9.02,15.07 -17.76,30.32 -26.75,45.39c-6.33,8.26 -18.41,11.64 -27.98,7.28c-12.28,-5.77 -18.15,-19.39 -29.92,-25.87c-10.26,-7.15 -21.98,-11.66 -33.22,-16.96c-4.4,-2.01 -9.12,-3.88 -12.33,-7.65c-5.49,-6.32 -5.54,-16.37 -0.63,-23.03c2.51,-3.64 6.51,-6.04 10.83,-6.85c16.96,-2.3 34.61,-2.1 50.72,-8.64c13.58,-4.77 24.73,-15.35 39.32,-17.37m-18.74,30.99c-4.01,8.06 -6.34,17.25 -5.16,26.28c-1.84,1.4 -3.84,2.55 -5.98,3.42c-0.83,-5.74 2.06,-11.05 2.68,-16.66c-1.7,0.39 -3.92,-0.02 -5.11,1.54c-1.63,3.69 -1.63,7.9 -3.36,11.55c-1.08,1.22 -2.77,3.23 -4.5,1.95c-0.35,-4.25 1.51,-8.36 1.09,-12.6c-2.67,-1.12 -5.85,-3.17 -8.68,-1.4c-4.7,2.6 -7.69,7.94 -7.91,13.26c-0.21,2.94 2.1,6 5.19,5.99c2.52,0.03 4.51,-1.74 6.49,-3.05c1.23,1.29 2.28,3.5 4.44,3.09c1.5,-0.33 2.82,-1.14 4.19,-1.8c3.76,3.67 8.86,0.36 12.4,-1.92c1.06,1.26 1.86,2.92 3.46,3.6c3.15,0.1 5.87,-1.74 8.59,-3.08c1.62,1.2 3.18,2.81 5.31,3.01c3.84,0.59 7.4,-1.35 10.5,-3.37c0.52,1.67 1.9,4.78 4.02,3.02c2.41,-4.06 3.38,-8.79 5.11,-13.16c0.79,2.51 0.87,6.05 3.71,7.24c2.87,1.11 5.58,-0.84 8.01,-2.11c0.1,-1.61 0.2,-3.22 0.32,-4.82c-2.13,1.35 -4.44,2.37 -6.91,2.87c-0.46,-2.14 -0.45,-4.32 -0.14,-6.48c0.31,-1.25 0.14,-3.27 -1.61,-3.2c-3.42,-0.04 -4.65,3.74 -6.21,6.14c-0.03,-2.14 -0.1,-4.28 -0.19,-6.41c-0.76,0.22 -2.29,0.66 -3.06,0.87c-1.48,3.31 -1.84,6.97 -2.45,10.5c-3.46,2.4 -8.22,6.54 -12.34,3.1c3.81,-1.8 8.66,-4.25 8.78,-9.1c0.13,-4.39 -5.47,-6.43 -8.82,-4.26c-4.09,2.3 -5.06,7.33 -5.41,11.62c-1.81,1.25 -3.82,2.16 -5.95,2.68c-0.15,-2.11 -0.6,-4.36 0.51,-6.3c3.68,-7.69 9.18,-14.98 9.71,-23.78c0,-1.89 -0.14,-4.81 -2.49,-5.22c-4.06,-0.11 -6.45,3.89 -8.23,6.99m-65.41,1.7c-2.02,2.61 -2.1,6.06 -1.6,9.19c3.4,-2.17 4.44,-7.01 8.57,-8.11c4.78,-1.28 10.62,-1.87 14.73,1.47c3.49,2.86 3.86,7.92 2.84,12.03c-1.34,5.62 -4.67,11.34 -10.22,13.61c-1.7,0.54 -3.79,1.21 -5.42,0.16c-0.4,-2.26 -0.11,-4.57 0.16,-6.83c0.9,-6.22 1.5,-12.7 4.71,-18.26c-1.77,-1.38 -4.68,-1.73 -5.82,0.62c-4.7,8.11 -4.54,17.85 -4.75,26.93c3.83,1.68 8.14,2.71 12.26,1.48c7.24,-1.98 12.07,-8.81 13.85,-15.81c1.31,-5.13 1.44,-11.18 -1.97,-15.56c-3.44,-4.44 -9.41,-5.7 -14.74,-5.77c-4.55,-0.06 -9.71,1.01 -12.6,4.85m54.04,2.87c-1.46,1.13 -1.86,3.5 -0.53,4.88c2.13,1.99 6.65,0.91 6.81,-2.3c0.62,-3.35 -4.16,-4.36 -6.28,-2.58z" fill="#34a2c3"/>
    <path id="svg_3" d="m93.59,79.19c0.62,-6.53 1.39,-14.03 6.58,-18.67c-0.06,6.78 -3.46,12.87 -6.58,18.67z" fill="#34a2c3"/>
    <path id="svg_4" d="m62.4,90.6c-0.7,-4.52 2.03,-9.38 6.3,-11.1c-0.72,3.77 -0.98,7.82 -2.97,11.19c-0.67,1.44 -3.13,1.94 -3.33,-0.09z" fill="#34a2c3"/>
    <path id="svg_5" d="m105.31,86.46c0.14,-3.17 1.27,-6.63 4.95,-6.95c1.42,3.6 -1.89,6.03 -4.95,6.95z" fill="#34a2c3"/>
   </g>
   <g id="#feffffff">
    <path id="svg_6" d="m93.79,62.71c1.78,-3.1 4.17,-7.1 8.23,-6.99c2.35,0.41 2.49,3.33 2.49,5.22c-0.53,8.8 -6.03,16.09 -9.71,23.78c-1.11,1.94 -0.66,4.19 -0.51,6.3c2.13,-0.52 4.14,-1.43 5.95,-2.68c0.35,-4.29 1.32,-9.32 5.41,-11.62c3.35,-2.17 8.95,-0.13 8.82,4.26c-0.12,4.85 -4.97,7.3 -8.78,9.1c4.12,3.44 8.88,-0.7 12.34,-3.1c0.61,-3.53 0.97,-7.19 2.45,-10.5c0.77,-0.21 2.3,-0.65 3.06,-0.87c0.09,2.13 0.16,4.27 0.19,6.41c1.56,-2.4 2.79,-6.18 6.21,-6.14c1.75,-0.07 1.92,1.95 1.61,3.2c-0.31,2.16 -0.32,4.34 0.14,6.48c2.47,-0.5 4.78,-1.52 6.91,-2.87c-0.12,1.6 -0.22,3.21 -0.32,4.82c-2.43,1.27 -5.14,3.22 -8.01,2.11c-2.84,-1.19 -2.92,-4.73 -3.71,-7.24c-1.73,4.37 -2.7,9.1 -5.11,13.16c-2.12,1.76 -3.5,-1.35 -4.02,-3.02c-3.1,2.02 -6.66,3.96 -10.5,3.37c-2.13,-0.2 -3.69,-1.81 -5.31,-3.01c-2.72,1.34 -5.44,3.18 -8.59,3.08c-1.6,-0.68 -2.4,-2.34 -3.46,-3.6c-3.54,2.28 -8.64,5.59 -12.4,1.92c-1.37,0.66 -2.69,1.47 -4.19,1.8c-2.16,0.41 -3.21,-1.8 -4.44,-3.09c-1.98,1.31 -3.97,3.08 -6.49,3.05c-3.09,0.01 -5.4,-3.05 -5.19,-5.99c0.22,-5.32 3.21,-10.66 7.91,-13.26c2.83,-1.77 6.01,0.28 8.68,1.4c0.42,4.24 -1.44,8.35 -1.09,12.6c1.73,1.28 3.42,-0.73 4.5,-1.95c1.73,-3.65 1.73,-7.86 3.36,-11.55c1.19,-1.56 3.41,-1.15 5.11,-1.54c-0.62,5.61 -3.51,10.92 -2.68,16.66c2.14,-0.87 4.14,-2.02 5.98,-3.42c-1.18,-9.03 1.15,-18.22 5.16,-26.28m-0.2,16.48c3.12,-5.8 6.52,-11.89 6.58,-18.67c-5.19,4.64 -5.96,12.14 -6.58,18.67m-31.19,11.41c0.2,2.03 2.66,1.53 3.33,0.09c1.99,-3.37 2.25,-7.42 2.97,-11.19c-4.27,1.72 -7,6.58 -6.3,11.1m42.91,-4.14c3.06,-0.92 6.37,-3.35 4.95,-6.95c-3.68,0.32 -4.81,3.78 -4.95,6.95z" fill="#feffff"/>
    <path id="svg_7" d="m28.38,64.41c2.89,-3.84 8.05,-4.91 12.6,-4.85c5.33,0.07 11.3,1.33 14.74,5.77c3.41,4.38 3.28,10.43 1.97,15.56c-1.78,7 -6.61,13.83 -13.85,15.81c-4.12,1.23 -8.43,0.2 -12.26,-1.48c0.21,-9.08 0.05,-18.82 4.75,-26.93c1.14,-2.35 4.05,-2 5.82,-0.62c-3.21,5.56 -3.81,12.04 -4.71,18.26c-0.27,2.26 -0.56,4.57 -0.16,6.83c1.63,1.05 3.72,0.38 5.42,-0.16c5.55,-2.27 8.88,-7.99 10.22,-13.61c1.02,-4.11 0.65,-9.17 -2.84,-12.03c-4.11,-3.34 -9.95,-2.75 -14.73,-1.47c-4.13,1.1 -5.17,5.94 -8.57,8.11c-0.5,-3.13 -0.42,-6.58 1.6,-9.19z" fill="#feffff"/>
    <path id="svg_8" d="m82.42,67.28c2.12,-1.78 6.9,-0.77 6.28,2.58c-0.16,3.21 -4.68,4.29 -6.81,2.3c-1.33,-1.38 -0.93,-3.75 0.53,-4.88z" fill="#feffff"/>
   </g>
   <g id="#7fcfe3ff">
    <path id="svg_9" d="m23.49,102.68c5.34,-1.66 10.28,1.68 14.78,4.07c6.35,3.74 14.1,5.16 19.45,10.51c4.87,4.47 9.84,8.86 14.36,13.69c2.58,2.94 0.03,8.69 -3.98,8.25c-8.37,-0.68 -16.77,-0.71 -25.14,-1.38c-5.63,-0.1 -11.43,-1.29 -16.03,-4.69c-5.52,-3.52 -8.98,-9.37 -11.49,-15.24c-2.37,-6.24 1.73,-13.5 8.05,-15.21z" fill="#7fcfe3"/>
   </g>
  </g>
 </g>
</svg>