<svg width="26" height="26" xmlns="http://www.w3.org/2000/svg" xmlns:xlink="http://www.w3.org/1999/xlink" preserveAspectRatio="xMidYMid meet">
 <defs>
  <path id="a2y5IDU99U" d="m205.5,181.03c-5.69,-7.03 -16.36,-7.23 -22.31,-0.4c-4.17,4.79 -10.66,12.24 -16.17,18.57c-3.02,3.47 -7.18,5.73 -11.73,6.38c-7.66,1.09 -9.27,1.32 -13.35,1.9c-12.4,1.77 -19.55,15.03 -14.22,26.37c2.19,4.64 0.68,1.45 3.54,7.51c4.67,9.93 4.64,21.44 -0.1,31.35c-2.83,5.93 -0.33,0.68 -2.28,4.76c-5.68,11.89 2.48,25.75 15.64,26.55c3.56,0.21 5,0.3 13.14,0.79c2.97,0.18 5.72,1.64 7.53,4.01c5.88,7.69 10.02,13.11 13.24,17.33c8.02,10.49 23.92,10.21 31.56,-0.56c2.92,-4.1 6.6,-9.29 12.1,-17.04c1.56,-2.18 4.02,-3.55 6.7,-3.7c8.68,-0.5 11.16,-0.64 15.01,-0.86c13.58,-0.79 22.06,-15.05 16.26,-27.36c-2.05,-4.35 -0.87,-1.85 -4.12,-8.74c-3.86,-8.19 -3.65,-17.71 0.58,-25.71c3.13,-5.94 0.83,-1.58 2.72,-5.15c6.37,-12.08 -0.96,-26.86 -14.43,-29.09c-4.05,-0.68 -5.47,-0.91 -13.68,-2.27c-4.24,-0.71 -8.07,-2.94 -10.78,-6.28c-5.15,-6.37 -11.04,-13.65 -14.85,-18.36z"/>
  <path id="cEGpGlfqu" d="m456.49,398.99c-5.06,-5.99 -14.22,-6.16 -19.49,-0.36c-3.75,4.12 -9.73,10.71 -14.65,16.12c-2.64,2.91 -6.21,4.79 -10.1,5.32c-6.86,0.94 -9.21,1.26 -13.02,1.78c-10.48,1.43 -16.48,12.7 -11.82,22.2c1.95,3.98 0.72,1.47 3.27,6.66c4.11,8.36 4.07,18.16 -0.08,26.5c-2.54,5.08 -0.42,0.83 -2.17,4.34c-4.97,9.96 1.87,21.76 12.98,22.4c3.37,0.19 5.6,0.32 12.87,0.74c2.54,0.15 4.9,1.37 6.48,3.36c5.24,6.57 9.14,11.46 12.04,15.11c7.14,8.95 20.83,8.71 27.65,-0.49c2.63,-3.55 6.09,-8.23 10.99,-14.84c1.36,-1.84 3.47,-2.98 5.76,-3.1c7.75,-0.43 10.92,-0.61 14.55,-0.81c11.47,-0.63 18.58,-12.77 13.5,-23.08c-1.84,-3.74 -0.89,-1.82 -3.79,-7.72c-3.39,-6.88 -3.2,-14.99 0.5,-21.71c2.8,-5.09 0.89,-1.61 2.58,-4.7c5.56,-10.09 -0.58,-22.63 -11.95,-24.44c-3.8,-0.61 -6.03,-0.96 -13.38,-2.13c-3.63,-0.58 -6.92,-2.44 -9.29,-5.24c-4.59,-5.44 -10.01,-11.86 -13.43,-15.91z"/>
  <path id="a3svsZcYlf" d="m471.42,462.06c0,14.02 -11.23,25.41 -25.06,25.41c-13.82,0 -25.05,-11.39 -25.05,-25.41c0,-14.03 11.23,-25.42 25.05,-25.42c13.83,0 25.06,11.39 25.06,25.42z"/>
 </defs>
 <g>
  <title>background</title>
  <rect fill="none" id="canvas_background" height="28" width="28" y="-1" x="-1"/>
 </g>
 <g>
  <title>Layer 1</title>
  <g stroke="null" id="svg_1">
   <g stroke="null" id="svg_15">
    <g stroke="null" id="svg_7">
     <use stroke="null" transform="matrix(0.1835336116317032,0,0,0.1802083274274055,2.389443411059101,1.6806001878181296) " x="-388.306375" y="-399.047546" id="svg_8" fill-opacity="0" fill="#e8b900" xlink:href="#cEGpGlfqu"/>
     <g stroke="null" id="svg_9">
      <use stroke="#031a21" transform="matrix(0.1835336116317032,0,0,0.1802083274274055,2.389443411059101,1.6806001878181296) " x="-388.306375" y="-399.047546" id="svg_10" stroke-width="6" fill-opacity="0" xlink:href="#cEGpGlfqu"/>
     </g>
    </g>
    <g stroke="null" id="svg_11">
     <use stroke="null" transform="matrix(0.1835336116317032,0,0,0.1802083274274055,2.389443411059101,1.6806001878181296) " x="-388.306375" y="-399.047546" id="svg_12" fill-opacity="0" fill="#e8b901" xlink:href="#a3svsZcYlf"/>
     <g stroke="null" id="svg_13">
      <use stroke="#071c23" transform="matrix(0.1835336116317032,0,0,0.1802083274274055,2.389443411059101,1.6806001878181296) " x="-388.306375" y="-399.047546" id="svg_14" stroke-width="6" fill-opacity="0" xlink:href="#a3svsZcYlf"/>
     </g>
    </g>
   </g>
  </g>
 </g>
</svg>